<?xml version="1.0" encoding="utf-8"?>

<!DOCTYPE svg PUBLIC "-//W3C//DTD SVG 1.1//EN" "http://www.w3.org/Graphics/SVG/1.1/DTD/svg11.dtd">
<svg version="1.1" id="Layer_1" xmlns="http://www.w3.org/2000/svg" xmlns:xlink="http://www.w3.org/1999/xlink" x="0px" y="0px"
	 viewBox="0 0 2624.107 944.015" enable-background="new 0 0 2624.107 944.015" xml:space="preserve">
<g id="Layer_x0020_1">
	<g id="_804538528">
		<path d="M69.098,802.518h615.677l-14.418,18.937H77.061C73.618,815.429,71.035,808.974,69.098,802.518z M77.061,122.56h593.297
			l14.418,18.937H69.098C71.035,135.042,73.618,128.586,77.061,122.56z M2556.339,802.518h-615.462l14.203,18.937h593.512
			C2551.82,815.429,2554.402,808.974,2556.339,802.518z M2548.592,122.56H1955.08l-14.203,18.937h615.462
			C2554.402,135.042,2551.82,128.586,2548.592,122.56z M351.221,623.474c0.553-4.422-0.069-23.896,6.886-44.761
			c-403.78-69.617-407.04,356.483-149.346,310.098c81.439-13.257,21.136-64.744,10.329-21.52
			c-112.201,33-189.207-53.481-152.574-143.536C102.832,628.426,261.894,609.067,351.221,623.474z M66.516,220.26
			C29.883,130.204,106.889,43.723,219.09,76.724c10.806,43.225,71.109-8.262-10.329-21.52
			C-48.933,8.819-45.673,434.919,358.107,365.302c-6.955-20.865-6.334-40.339-6.886-44.761
			C261.894,334.949,102.832,315.589,66.516,220.26z M2491.995,653.386c135.796,71.38,77.671,261.94-85.648,213.905
			c-7.252-29.01-43.271-15.229-27.976,5.165c15.15,18.646,76.4,23.776,112.978,15.494
			c164.303-34.59,151.205-363.025-217.779-310.313l-6.241,1.076c4.751,14.252,6.886,30.957,6.886,44.761
			C2354.406,610.945,2443.816,627.772,2491.995,653.386z M2274.217,320.541c0,13.804-2.135,30.509-6.886,44.761l6.241,1.076
			c368.984,52.712,382.082-275.723,217.779-310.313c-36.578-8.282-97.829-3.152-112.978,15.494
			c-15.295,20.394,20.723,34.175,27.976,5.165c163.319-48.035,221.444,142.525,85.648,213.905
			C2443.816,316.243,2354.406,333.071,2274.217,320.541z M1471.964,805.315c-7.102-11.836-13.557-25.824-16.355-39.596
			c10.289-24.007-23.871-34.107-19.368-2.582c12.854,94.649,137.38,212.034,354.429,103.509
			c151.495-77.031,299.222-200.864,453.634-237.362c0.746-8.204-0.569-30.738-6.671-44.976
			c-191.601,40.766-403.962,253.017-569.195,284.49C1586.452,884.415,1514.767,876.257,1471.964,805.315z M1668.439,75.217
			c165.233,31.473,377.593,243.724,569.195,284.49c6.102-14.238,7.417-36.772,6.671-44.976
			c-154.412-36.497-302.139-160.33-453.634-237.362c-217.048-108.524-341.575,8.86-354.429,103.509
			c-4.503,31.524,29.656,21.424,19.368-2.582c2.798-13.773,9.253-27.76,16.355-39.596
			C1514.767,67.759,1586.452,59.601,1668.439,75.217z M387.804,584.308c-5.852,15.362-6.671,28.155-6.671,44.976
			c234.499,54.437,432.311,299.002,643.438,278.895c58.005-5.874,107.716-30.555,144.827-93.18c53.36-87.662-13.72-82.8,0.646-49.28
			c-24.403,111.555-144.002,127.395-255.223,92.534C776.157,813.392,560.811,621.118,387.804,584.308z M914.821,85.762
			c111.221-34.86,230.82-19.021,255.223,92.534c-14.366,33.52,52.714,38.382-0.646-49.28
			c-37.111-62.625-86.823-87.306-144.827-93.18C813.444,15.729,615.632,260.294,381.133,314.731c0,16.821,0.819,29.614,6.671,44.976
			C560.811,322.897,776.157,130.623,914.821,85.762z M1692.11,542.13c21.301,9.23,40.521,21.829,54.875,31.203
			c-103.919,103.919-211.031,30.031-162.904-30.128C1604.236,516.753,1661.411,528.601,1692.11,542.13z M1584.082,400.809
			c-48.127-60.159,58.985-134.046,162.904-30.128c-14.354,9.374-33.574,21.973-54.875,31.203
			C1661.411,415.414,1604.236,427.263,1584.082,400.809z M979.595,624.55c-38.647-1.982-73.837-23.911-101.142-51.217
			C1078.641,442.598,1097.227,630.583,979.595,624.55z M878.452,370.682c27.305-27.305,62.496-49.235,101.142-51.217
			C1097.227,313.433,1078.641,501.417,878.452,370.682z M1786.814,472.008c-0.292,4.78-0.726,9.647-1.309,14.602
			c-5.186,42.783-16.755,59.826-24.748,71.015h-0.215l-1.291,1.722c-223.893-156.725-268.083,94.331-112.333,83.711
			c45.015-2.001,84.175-27.363,115.776-58.964c22.512,15.56,39.94,28.129,61.116,43.254
			c-266.413,189.294-443.223,63.444-379.822-88.015c10.555-26.698,30.946-53.303,54.036-67.325
			c-23.089-14.022-43.48-40.626-54.036-67.325c-63.401-151.459,113.408-277.309,379.822-88.015
			c-21.176,15.126-38.604,27.695-61.116,43.254c-31.6-31.6-70.76-56.963-115.776-58.964
			c-155.75-10.619-111.56,240.436,112.333,83.711l1.291,1.722h0.215c7.992,11.189,19.562,28.232,24.748,71.015
			C1786.088,462.361,1786.523,467.228,1786.814,472.008z M1467.097,472.008c-47.088,44.691-70.246,130.73-43.122,183.746
			c50.608,100.039,214.061,159.729,437.71-1.506c41.611,28.807,68.137,45.488,93.826,60.901l17.861-10.975
			c-7.068-4.283-40.018-22.725-95.547-61.546c487.414-352.955,453.19,212.209,150.853,89.522l-19.368,11.836
			c75.652,37.826,178.906,32.705,236.501-43.47c42.637-55.428,34.38-173.307-86.078-206.373
			c-112.907-31.184-226.911,56.389-319.997,121.801c-35.667-25.418-47.198-33.821-64.129-45.622
			c25.438-29.352,40.39-63.405,45.502-98.313c-5.111-34.908-20.063-68.961-45.502-98.313c16.931-11.8,28.462-20.204,64.129-45.622
			c93.087,65.412,207.09,152.985,319.997,121.801c120.458-33.067,128.716-150.945,86.078-206.373
			c-57.595-76.174-160.848-81.296-236.501-43.47l19.368,11.836c302.337-122.688,336.561,442.477-150.853,89.522
			c55.529-38.821,88.48-57.263,95.547-61.546l-17.861-10.975c-25.688,15.413-52.215,32.093-93.826,60.901
			c-223.649-161.235-387.102-101.546-437.71-1.506C1396.851,341.278,1420.009,427.317,1467.097,472.008z M805.223,472.008
			c5.31,36.712,19.217,68.768,44.823,98.313c-16.66,11.438-29.221,20.592-64.344,45.622
			c-111.031-79.09-172.716-118.787-251.78-126.966c-256.874-23.785-240.499,362.648,82.42,255.008l-19.583-11.836
			c-291.545,118.308-307.72-357.057,35.077-166.132c42.531,23.305,78.18,49.386,115.776,76.61
			c-44.957,31.43-74.284,49.039-95.547,61.546l18.076,10.975c44.014-26.821,80.513-51.471,93.61-60.901
			c358.935,258.767,553.084-46.035,394.82-182.24c158.264-136.204-35.885-441.006-394.82-182.24
			c-13.097-9.43-49.596-34.079-93.61-60.901l-18.076,10.975c21.263,12.508,50.59,30.116,95.547,61.546
			c-37.595,27.224-73.244,53.305-115.776,76.61C289.04,568.924,305.215,93.559,596.76,211.867l19.583-11.836
			c-322.919-107.64-339.294,278.792-82.42,255.008c79.064-8.179,140.749-47.876,251.78-126.966
			c35.122,25.03,47.684,34.183,64.344,45.622C824.44,403.24,810.533,435.296,805.223,472.008z M1127.453,472.008
			c15.345,8.54,30.424,25.663,40.439,41.071c95.314,150.914-75.06,321.025-366.049,114.269c19.15-13.899,38.339-27.66,60.901-43.254
			c22.729,22.729,54.16,45.66,85.648,54.014c181.551,51.872,167.573-245.281-82.205-78.762l-1.291-1.722l0,0
			c-9.648-12.663-15.98-25.031-21.52-50.356c-2.757-12.211-4.554-23.966-5.466-35.26c0.913-11.295,2.709-23.049,5.466-35.26
			c5.54-25.325,11.872-37.693,21.52-50.356l0,0l1.291-1.722c249.778,166.519,263.756-130.633,82.205-78.762
			c-31.488,8.354-62.919,31.285-85.648,54.014c-22.562-15.594-41.75-29.355-60.901-43.254
			c290.99-206.756,461.363-36.644,366.049,114.269C1157.877,446.344,1142.797,463.467,1127.453,472.008z"/>
	</g>
</g>
</svg>
